<svg width="26" height="28" viewBox="0 0 26 28" fill="none" xmlns="http://www.w3.org/2000/svg">
<path fill-rule="evenodd" clip-rule="evenodd" d="M4.8856 4.66667H20.8803C23.5189 4.66667 25.6669 6.77733 25.6669 9.372V12.6667C25.6669 13.404 25.0709 14 24.3336 14C23.5963 14 23.0003 13.404 23.0003 12.6667V9.372C23.0003 8.24933 22.0496 7.33333 20.8803 7.33333H4.8856L6.6096 9.05733C7.1296 9.57867 7.1296 10.4213 6.6096 10.9427C6.3496 11.2027 6.00827 11.3333 5.66693 11.3333C5.3256 11.3333 4.98427 11.2027 4.72427 10.9427L0.724267 6.94267C0.202934 6.42133 0.202934 5.57867 0.724267 5.05733L4.72427 1.05733C5.24427 0.535999 6.08827 0.535999 6.6096 1.05733C7.1296 1.57867 7.1296 2.42133 6.6096 2.94267L4.8856 4.66667ZM19.3907 17.0573C19.912 16.536 20.7547 16.536 21.276 17.0573L25.276 21.0573C25.7973 21.5787 25.7973 22.4213 25.276 22.9427L21.276 26.9427C21.016 27.2027 20.6747 27.3333 20.3333 27.3333C19.992 27.3333 19.6507 27.2027 19.3907 26.9427C18.8693 26.4213 18.8693 25.5787 19.3907 25.0573L21.1147 23.3333H5.12C2.48 23.3333 0.333334 21.2227 0.333334 18.628V15.3333C0.333334 14.596 0.930667 14 1.66667 14C2.40267 14 3 14.596 3 15.3333V18.628C3 19.752 3.95067 20.6667 5.12 20.6667H21.1147L19.3907 18.9427C18.8693 18.4213 18.8693 17.5787 19.3907 17.0573Z" fill="url(#paint0_linear_1941_47)"/>
<defs>
<linearGradient id="paint0_linear_1941_47" x1="25.667" y1="0.666329" x2="-4.24211" y2="7.60164" gradientUnits="userSpaceOnUse">
<stop stop-color="#1C94F4"/>
<stop offset="1" stop-color="#1273EA"/>
</linearGradient>
</defs>
</svg>
