<svg width="40" height="40" viewBox="0 0 40 40" fill="none" xmlns="http://www.w3.org/2000/svg">
<path fill-rule="evenodd" clip-rule="evenodd" d="M31.0432 0H8.96537C7.25403 0 5.86672 1.38731 5.86672 3.09865V27.3447C5.86672 28.5114 6.39262 29.616 7.2983 30.3515L18.5393 39.4801C19.3929 40.1733 20.6157 40.1733 21.4693 39.4801L32.7103 30.3515C33.616 29.616 34.1419 28.5114 34.1419 27.3447V3.09865C34.1419 1.38731 32.7546 0 31.0432 0ZM29.4938 6.97199C29.4938 5.68848 28.4533 4.648 27.1698 4.648H12.8385C11.555 4.648 10.5146 5.68848 10.5146 6.97199V24.8707C10.5146 25.5378 10.8012 26.1727 11.3016 26.6139L17.1393 31.761L17.1394 18.9318H20.545C21.8285 18.9318 22.869 19.9723 22.869 21.2558L22.8689 31.761L28.7068 26.6139C29.2071 26.1727 29.4938 25.5378 29.4938 24.8707V20.1817L29.4931 20.1195C29.4605 18.5909 28.2271 17.3577 26.6983 17.3255L26.637 17.3249L26.6992 17.3242C28.2278 17.2916 29.461 16.0582 29.4931 14.5294L29.4938 14.4681V6.97199ZM17.1394 7.86186H22.869V12.6798C22.869 13.9633 21.8285 15.0038 20.545 15.0038H17.1394V7.86186Z" fill="white"/>
</svg>
