<svg width="18" height="18" viewBox="0 0 18 18" fill="none" xmlns="http://www.w3.org/2000/svg">
<path d="M8.99893 4.00089C6.13244 3.95052 3.16782 6.03728 1.304 8.17441C0.898667 8.64332 0.898667 9.35446 1.304 9.82337C3.12729 11.9153 6.08338 14.0502 8.99893 13.9991C11.9145 14.0502 14.8713 11.9153 16.696 9.82337C17.1013 9.35446 17.1013 8.64332 16.696 8.17441C14.83 6.03728 11.8654 3.95052 8.99893 4.00089ZM11.6656 9.00037C11.6649 10.5345 10.4709 11.7783 8.99822 11.7775C7.52551 11.7768 6.33156 10.533 6.33227 8.99889C6.33298 7.46475 7.52622 6.22173 8.99893 6.22173C10.4716 6.22099 11.6649 7.46401 11.6656 8.99815V9.00037Z" stroke="#4B5B73" stroke-width="1.5" stroke-linecap="round" stroke-linejoin="round"/>
</svg>
