<svg width="18" height="18" viewBox="0 0 18 18" fill="none" xmlns="http://www.w3.org/2000/svg">
<path d="M2.65527 15.2102L15.9886 2.21021M10.7148 4.37027C10.1538 4.22872 9.57707 4.16011 8.99893 4.16661C6.13244 4.11822 3.16782 6.15416 1.304 8.23633C0.898667 8.6935 0.898667 9.38683 1.304 9.844C1.87076 10.4738 2.48942 11.0537 3.15289 11.5773M6.33227 9.04161C6.33156 7.54588 7.5248 6.334 8.99751 6.33328M11.6656 9.04088C11.6663 10.5366 10.4724 11.7492 8.99964 11.7499M7.05472 13.6563C7.68757 13.8338 8.34182 13.9218 8.99893 13.9166C11.9145 13.9664 14.8713 11.885 16.696 9.84544C17.1013 9.38827 17.1013 8.69494 16.696 8.23778C16.1061 7.58067 15.4602 6.97931 14.7648 6.43984" stroke="#828C99" stroke-width="1.5" stroke-linecap="round" stroke-linejoin="round"/>
</svg>
