<svg width="160" height="160" viewBox="0 0 160 160" fill="none" xmlns="http://www.w3.org/2000/svg">
<path fill-rule="evenodd" clip-rule="evenodd" d="M35.8613 0H124.173C131.018 0 136.567 5.54925 136.567 12.3946V109.379C136.567 114.046 134.464 118.464 130.841 121.406L85.8772 157.92C82.4625 160.693 77.5716 160.693 74.1569 157.92L29.193 121.406C25.5703 118.464 23.4667 114.046 23.4667 109.379V12.3946C23.4667 5.54925 29.0159 0 35.8613 0Z" fill="#1273EA"/>
<path fill-rule="evenodd" clip-rule="evenodd" d="M108.68 18.5919C113.814 18.5919 117.976 22.7539 117.976 27.8879V57.8724L117.973 58.1177C117.844 64.2328 112.912 69.1664 106.797 69.2968L106.548 69.2995L106.794 69.3021C112.909 69.4308 117.842 74.3633 117.973 80.478L117.976 80.7265V99.4828C117.976 102.151 116.829 104.691 114.827 106.456L91.4759 127.044L91.4762 85.0232C91.4762 79.8891 87.3143 75.7272 82.1803 75.7272H68.5579L68.5575 127.044L45.2067 106.456C43.2052 104.691 42.0586 102.151 42.0586 99.4828V27.8879C42.0586 22.7539 46.2205 18.5919 51.3545 18.5919H108.68ZM91.4762 31.4474H68.5579V60.015H82.1803C87.3143 60.015 91.4762 55.8531 91.4762 50.719V31.4474Z" fill="white"/>
</svg>
